<svg xmlns="http://www.w3.org/2000/svg" viewBox="0 0 61.98 61.99"><defs><style>.cls-1{fill:#fff;}.cls-2{fill:#ed1c24;}</style></defs><g id="Layer_2" data-name="Layer 2"><g id="Layer_1-2" data-name="Layer 1"><path d="M15.37,0h1.46a1.32,1.32,0,0,0,.2.12,3.61,3.61,0,0,1,2.7,3.69v1H39.35c0-.42,0-.8,0-1.18A3.47,3.47,0,0,1,41.16.49,8.23,8.23,0,0,1,42.25,0H43.7a2.12,2.12,0,0,0,.2.12,3.58,3.58,0,0,1,2.7,3.69v1h8.49a3.68,3.68,0,0,1,4,4q0,16.79,0,33.57a1.8,1.8,0,0,0,.36,1,12,12,0,0,1,2.14,4.16c.15.56.26,1.13.39,1.69v2.67a1.75,1.75,0,0,0-.12.32,11.36,11.36,0,0,1-20.21,5.36,1.09,1.09,0,0,0-1-.49c-3.49,0-7,0-10.47,0a2.38,2.38,0,0,1-.71-.07,1.21,1.21,0,0,1,.46-2.35h10l-.75-3.39H7.38c-1.18,0-1.57-.38-1.57-1.55V21.88c0-1.14.39-1.54,1.51-1.54H51.75c1.12,0,1.51.4,1.51,1.53V39.42l3.35,1.4V17H11.36c-.2,0-.4,0-.6,0a1.18,1.18,0,0,1-1.07-1.18c0-.8.52-1.23,1.52-1.23H56.66V8.87c0-1.14-.48-1.61-1.63-1.61H47.17c-.18,0-.35,0-.57,0,0,.44,0,.84,0,1.24a3.63,3.63,0,0,1-7.25,0c0-.42,0-.83,0-1.23H19.73v1.2a3.63,3.63,0,0,1-7.26,0V7.26H4.25c-1.44,0-1.83.39-1.83,1.83V52.85c0,1.49.37,1.87,1.84,1.87H19.88a2.38,2.38,0,0,1,.71.07,1.22,1.22,0,0,1,.81,1.34,1.24,1.24,0,0,1-1.37,1H3.8A3.66,3.66,0,0,1,0,53.33V8.66A3.65,3.65,0,0,1,3.8,4.85h8.67V3.63A3.53,3.53,0,0,1,14.28.49,8.86,8.86,0,0,1,15.37,0ZM50.61,59.56a9,9,0,1,0-9-9A9,9,0,0,0,50.61,59.56ZM8.25,29.87h6.5V22.79H8.25ZM23.79,22.8h-6.5v7.07h6.5Zm9,7.09V22.8H26.3v7.09Zm2.51,0h6.5V22.8h-6.5Zm9-7.09v7.08H50.8V22.78Zm-36.06,19v7.09h6.48V41.78Zm15.51,7.1V41.8H17.29v7.08Zm9,0V41.8H26.3v7.09ZM8.25,39.31h6.49v-7H8.25Zm9.06-7V39.3h6.48V32.35Zm9,6.95h6.5V32.37h-6.5Zm9-7v7h6.49v-7Zm15.54,0H44.33v6.89h6.49ZM35.28,48.88h4.06a10.48,10.48,0,0,1,2-4.88,2.93,2.93,0,0,0,.42-2.19h-6.5ZM17.31,6c0-.74,0-1.49,0-2.23a1.22,1.22,0,1,0-2.42,0q0,2.27,0,4.53a1.27,1.27,0,0,0,1.22,1.37,1.28,1.28,0,0,0,1.2-1.39C17.32,7.53,17.31,6.76,17.31,6Zm26.88,0c0-.74,0-1.49,0-2.23A1.28,1.28,0,0,0,43,2.43a1.25,1.25,0,0,0-1.22,1.36q0,2.26,0,4.53A1.25,1.25,0,0,0,43,9.68a1.28,1.28,0,0,0,1.2-1.4C44.2,7.54,44.19,6.8,44.19,6.05Z"/><path class="cls-1" d="M50.61,59.56a9,9,0,1,1,9-9A9,9,0,0,1,50.61,59.56Zm-.27-8.11c-.55-.58-1-1.1-1.53-1.59A1.22,1.22,0,0,0,47,49.74a1.21,1.21,0,0,0,.08,1.82q1.14,1.17,2.31,2.31a1.22,1.22,0,0,0,1.95,0c1.47-1.45,2.93-2.9,4.36-4.38a1.64,1.64,0,0,0,.46-.82,1.08,1.08,0,0,0-.66-1.24,1.19,1.19,0,0,0-1.44.27Z"/><path class="cls-1" d="M8.25,29.87V22.79h6.5v7.08Z"/><path class="cls-1" d="M23.79,22.8v7.07h-6.5V22.8Z"/><path class="cls-1" d="M32.77,29.89H26.3V22.8h6.47Z"/><path class="cls-1" d="M35.28,29.87V22.8h6.5v7.07Z"/><path class="cls-2" d="M44.33,22.78H50.8v7.08H44.33Z"/><path class="cls-1" d="M8.27,41.78h6.48v7.09H8.27Z"/><path class="cls-1" d="M23.78,48.88H17.29V41.8h6.49Z"/><path class="cls-1" d="M32.77,48.89H26.3V41.8h6.47Z"/><path class="cls-1" d="M8.25,39.31v-7h6.49v7Z"/><path class="cls-2" d="M17.31,32.35h6.48V39.3H17.31Z"/><path class="cls-1" d="M26.29,39.3V32.37h6.5V39.3Z"/><path class="cls-2" d="M35.28,32.34h6.49v7H35.28Z"/><path class="cls-1" d="M50.82,32.36v6.89H44.33V32.36Z"/><path class="cls-1" d="M35.28,48.88V41.81h6.5A2.93,2.93,0,0,1,41.36,44a10.48,10.48,0,0,0-2,4.88Z"/><path class="cls-2" d="M17.31,6c0,.76,0,1.53,0,2.29a1.28,1.28,0,0,1-1.2,1.39,1.27,1.27,0,0,1-1.22-1.37q0-2.27,0-4.53a1.22,1.22,0,1,1,2.42,0C17.32,4.51,17.31,5.26,17.31,6Z"/><path class="cls-2" d="M44.19,6.05c0,.75,0,1.49,0,2.23A1.28,1.28,0,0,1,43,9.68a1.25,1.25,0,0,1-1.22-1.36q0-2.27,0-4.53A1.25,1.25,0,0,1,43,2.43a1.28,1.28,0,0,1,1.2,1.39C44.2,4.56,44.19,5.31,44.19,6.05Z"/><path d="M23.83,55.94A1.19,1.19,0,0,1,25,54.72a1.21,1.21,0,0,1,0,2.42A1.19,1.19,0,0,1,23.83,55.94Z"/><path d="M7.26,15.74a1.21,1.21,0,1,1-2.42,0A1.21,1.21,0,0,1,6,14.53,1.19,1.19,0,0,1,7.26,15.74Z"/><path d="M50.34,51.45l3.71-3.74a1.19,1.19,0,0,1,1.44-.27,1.08,1.08,0,0,1,.66,1.24,1.64,1.64,0,0,1-.46.82c-1.43,1.48-2.89,2.93-4.36,4.38a1.22,1.22,0,0,1-1.95,0q-1.17-1.14-2.31-2.31A1.21,1.21,0,0,1,47,49.74a1.22,1.22,0,0,1,1.82.12C49.31,50.35,49.79,50.87,50.34,51.45Z"/></g></g></svg>