<svg xmlns="http://www.w3.org/2000/svg" viewBox="0 0 52.13 58.64"><defs><style>.cls-1{fill:#fbb367;}.cls-2{fill:#ffdf80;}.cls-3{fill:#f47b52;}.cls-4{fill:#f47b53;}.cls-5{fill:#f47a51;}.cls-6{fill:#fbb368;}.cls-7{fill:#ed1c24;}.cls-8{fill:none;stroke:#0f0b07;stroke-miterlimit:10;}</style></defs><g id="Layer_2" data-name="Layer 2"><g id="Layer_1-2" data-name="Layer 1"><path class="cls-1" d="M26.08,0a8.49,8.49,0,0,1,8.28,6.46,8,8,0,0,1,.24,2c0,2.21,0,4.43,0,6.64a1.76,1.76,0,0,0,1.8,2A1.68,1.68,0,0,1,38,18.81a1.66,1.66,0,0,1-1.7,1.62H26.08Z"/><path class="cls-2" d="M26.08,0V20.44H15.92a1.64,1.64,0,0,1-1.54-.88,1.61,1.61,0,0,1,.07-1.76A1.68,1.68,0,0,1,15.78,17a1.72,1.72,0,0,0,1.78-1.9c0-2.23,0-4.46,0-6.7A8.52,8.52,0,0,1,24.84.09,5.18,5.18,0,0,1,26.08,0Z"/><path class="cls-3" d="M44.52,1.79a1.72,1.72,0,0,1,1.74,1A1.55,1.55,0,0,1,46,4.56c-.85.91-1.73,1.8-2.65,2.64a1.64,1.64,0,0,1-2.26-.09,1.64,1.64,0,0,1-.1-2.3c.83-.91,1.72-1.76,2.6-2.61A1.34,1.34,0,0,1,44.52,1.79Z"/><path class="cls-4" d="M46.42,20.33a1.6,1.6,0,0,1-1,1.55,1.57,1.57,0,0,1-1.85-.25c-.88-.82-1.74-1.68-2.56-2.56a1.69,1.69,0,0,1,2.39-2.39c.88.82,1.72,1.69,2.57,2.56A1.44,1.44,0,0,1,46.42,20.33Z"/><path class="cls-5" d="M44.82,13.62c-.56,0-1.13,0-1.7,0a1.7,1.7,0,1,1,0-3.4c1.11,0,2.23,0,3.34,0a1.69,1.69,0,0,1,1.74,1.71,1.7,1.7,0,0,1-1.76,1.69C45.92,13.63,45.37,13.62,44.82,13.62Z"/><path class="cls-6" d="M7.29,10.22H8.93a1.7,1.7,0,0,1,0,3.4c-1.14,0-2.27,0-3.4,0a1.7,1.7,0,1,1,0-3.4Z"/><path class="cls-6" d="M7.32,1.8a1.65,1.65,0,0,1,1.27.52c.77.77,1.56,1.54,2.32,2.32a1.72,1.72,0,0,1,0,2.48A1.68,1.68,0,0,1,8.51,7c-.81-.8-1.62-1.59-2.4-2.41A1.58,1.58,0,0,1,5.8,2.79,1.61,1.61,0,0,1,7.32,1.8Z"/><path class="cls-6" d="M7.53,22.05a1.72,1.72,0,0,1-1.72-1,1.54,1.54,0,0,1,.26-1.8c.83-.89,1.7-1.76,2.6-2.6a1.62,1.62,0,0,1,2.26.05,1.66,1.66,0,0,1,.14,2.3c-.85.92-1.75,1.78-2.64,2.65A1.32,1.32,0,0,1,7.53,22.05Z"/><path class="cls-5" d="M26.08,20.44h1.71c0,.58,0,1.17,0,1.75a1.64,1.64,0,0,1-1.7,1.64V20.44Z"/><path class="cls-6" d="M26.08,20.44v3.39a1.67,1.67,0,0,1-1.7-1.7c0-.56,0-1.13,0-1.69Z"/><path class="cls-7" d="M12.58,51.34a5.15,5.15,0,0,1-3.69-1.47,1.7,1.7,0,0,1-.1-2.4,1.64,1.64,0,0,1,2.34-.12,1.85,1.85,0,0,0,1.74.43A1.66,1.66,0,0,0,14.14,46a1.75,1.75,0,0,0-1.68-1.49,5.11,5.11,0,1,1,3.63-8.68,1.73,1.73,0,0,1,0,2.32,1.68,1.68,0,0,1-2.26.2,2,2,0,0,0-1.43-.56,1.66,1.66,0,1,0,0,3.31,5,5,0,0,1,4.29,2.35A4.86,4.86,0,0,1,17,48.62,5,5,0,0,1,12.58,51.34Z"/><path class="cls-7" d="M26.08,51.35A5.15,5.15,0,0,1,21,45.85V36.09a1.68,1.68,0,0,1,.91-1.58,1.57,1.57,0,0,1,1.76.1,1.75,1.75,0,0,1,.74,1.57q0,5,0,9.94a1.67,1.67,0,0,0,1.7,1.78v3.45Z"/><path class="cls-7" d="M34.6,42.8c0-2.19,0-4.39,0-6.58a1.72,1.72,0,0,1,1.93-1.92,24.78,24.78,0,0,1,4.13.1,5,5,0,0,1,3.15,8,.62.62,0,0,0,0,.87,4.83,4.83,0,0,1,.44,5.25,4.89,4.89,0,0,1-4.4,2.82c-1.17,0-2.35,0-3.52,0a1.7,1.7,0,0,1-1.74-1.77C34.59,47.3,34.6,45.05,34.6,42.8ZM38,39.43c0,.45,0,.9,0,1.36,0,.24.08.33.33.32.47,0,.94,0,1.41,0a1.7,1.7,0,0,0,0-3.4c-.45,0-.91,0-1.36,0s-.41.14-.39.44S38,39,38,39.43Zm0,6.79c0,.44,0,.87,0,1.31,0,.27,0,.41.37.4.47,0,.94,0,1.41,0a1.7,1.7,0,0,0,1.56-2.15c-.32-1.07-1.28-1.54-3-1.21-.71.13-.11,1-.29,1.44A.55.55,0,0,0,38,46.22Z"/><path class="cls-7" d="M26.07,51.31V47.93a1.83,1.83,0,0,0,1.71-2.12v-9.7a1.71,1.71,0,1,1,3.41,0V46.41A5.07,5.07,0,0,1,26.07,51.31Z"/><path class="cls-8" d="M51.54,34.66a8.51,8.51,0,0,0-8.38-7.18H35.73l-9.65,0-.4,0c-5.57,0-11.15,0-16.73,0A8.51,8.51,0,0,0,.53,35.92c0,4.6-.06,9.19,0,13.79a8.27,8.27,0,0,0,5.06,7.7A14.66,14.66,0,0,0,8,58.14H44.25c.06,0,.12-.09.18-.1a8.47,8.47,0,0,0,7.2-8.41V36A9.36,9.36,0,0,0,51.54,34.66Z"/></g></g></svg>