<svg xmlns="http://www.w3.org/2000/svg" viewBox="0 0 57.11 57.14"><g id="Layer_2" data-name="Layer 2"><g id="Layer_1-2" data-name="Layer 1"><path d="M4.36,57.14c-.43-.14-.88-.25-1.31-.42a4.94,4.94,0,0,1-3-5.26A4.88,4.88,0,0,1,4.54,47.1L5.85,47c-.25-1-.5-1.91-.74-2.86C4.55,42,3.93,39.87,3.45,37.7a5.53,5.53,0,0,1,4.79-6.52c2.27-.18,4.56-.09,6.85-.11.24,0,.47,0,.78,0-.18-.95-.37-1.83-.52-2.71-.94-5.72-.76-11.34,1.72-16.69A19.05,19.05,0,0,1,31.64.31,21.1,21.1,0,0,1,43.48,1.73a.85.85,0,1,1-.66,1.55,17.64,17.64,0,0,0-5.33-1.49A18.06,18.06,0,0,0,28,3.26a18.25,18.25,0,0,0-9.72,9.65c-.41,1-.68,2-1,2.91.91-.25,1.78-.46,2.64-.72a.74.74,0,0,0,.37-.39c.37-.77.72-1.54,1.06-2.33a1.33,1.33,0,0,1,1.43-.8,25.54,25.54,0,0,0,7.47-1.05A22.21,22.21,0,0,0,36.9,7.28c.86-.62,1-.62,1.8,0A22.5,22.5,0,0,0,48,11.16a1.19,1.19,0,0,1,.94.68c.46.95.93,1.9,1.36,2.86a.67.67,0,0,0,.54.44c.8.17,1.59.43,2.47.68-.33-1-.61-2-1-2.89a18.32,18.32,0,0,0-5.81-7.48c-.12-.09-.24-.18-.35-.28A.84.84,0,0,1,46,4a.81.81,0,0,1,1.14-.17,20.09,20.09,0,0,1,1.61,1.28,19.82,19.82,0,0,1,6.48,12.12,34.25,34.25,0,0,1-1.46,16.8,19.68,19.68,0,0,1-3.85,6.6.66.66,0,0,0-.11.56A16.55,16.55,0,0,1,51.23,47l1.14.07A4.83,4.83,0,0,1,57,51.15a.7.7,0,0,0,.1.19v1.45a1.63,1.63,0,0,0-.11.31A4.78,4.78,0,0,1,53.34,57l-.58.17ZM7.62,47.05H19.9a3.71,3.71,0,0,1,.67,0,.71.71,0,0,1,.64.72.72.72,0,0,1-.49.84,2.44,2.44,0,0,1-.76.1H5a3.33,3.33,0,0,0-.9,6.52,5.71,5.71,0,0,0,1.48.18H52.09a3.35,3.35,0,0,0,3.13-4.53,3.27,3.27,0,0,0-3.35-2.17h-27a3,3,0,0,1-.67,0,.78.78,0,0,1-.7-.86.77.77,0,0,1,.77-.79,5.33,5.33,0,0,1,.56,0h7.25l.66,0c0-.18,0-.29-.07-.4q-1.37-5.16-2.72-10.31a4.29,4.29,0,0,0-4.55-3.52H18.68c-3.32,0-6.65,0-10,0a3.87,3.87,0,0,0-3.59,4.52c.28,1.39.68,2.77,1,4.15C6.63,43.33,7.12,45.17,7.62,47.05ZM37.81,8.73a25.77,25.77,0,0,1-14.68,4.55c-.37,0-.47.21-.6.46a14,14,0,0,0-1.33,8.61,14,14,0,0,0,4.65,8.51,1.08,1.08,0,0,0,.53.27,6.07,6.07,0,0,1,4.06,2.29,1,1,0,0,0,.49.33,14.05,14.05,0,0,0,14.12-3.17,3.22,3.22,0,0,0,.24-.33H41.88a2.51,2.51,0,0,1-2.16,1.66,15,15,0,0,1-2.12,0,2.48,2.48,0,0,1-2.32-2.52,2.44,2.44,0,0,1,2.31-2.47c.65,0,1.3,0,1.95,0a2.51,2.51,0,0,1,2.18,1.32.79.79,0,0,0,.52.34c1.42,0,2.83,0,4.24,0a.76.76,0,0,0,.53-.28,14.35,14.35,0,0,0,.68-15.17.88.88,0,0,0-.45-.36A24.5,24.5,0,0,1,37.81,8.73Zm5.26,32.45c0-.31,0-.55,0-.78a.83.83,0,0,1,.86-.89c.5,0,.79.29.83.85s0,.86,0,1.28c0,1-.25,1.22-1.22,1.22H39.77V47h9.77c0-.31-.06-.58-.1-.85a14.17,14.17,0,0,0-7.53-10.93,1.24,1.24,0,0,0-1.14-.09,15.11,15.11,0,0,1-6.89.92c-.76-.09-1.52-.21-2.35-.32l2.3,8.72c.26-.36.45-.65.68-.92a6.42,6.42,0,0,1,5-2.37Zm5.71-1.83A21.55,21.55,0,0,0,53.4,28.76c-.51.31-1,.64-1.49.9a7.13,7.13,0,0,1-3.7.58,1.12,1.12,0,0,0-.9.4c-1,.92-2,1.8-3,2.68a9,9,0,0,1-1.09.72A16.37,16.37,0,0,1,48.78,39.35ZM23.5,31.05a.77.77,0,0,0-.09-.2,16.18,16.18,0,0,1-3.17-5.32c0-.12-.17-.29-.27-.3a5.57,5.57,0,0,1-3.26-1.36,30.11,30.11,0,0,0,.95,7.18Zm27.43-7.61A3.33,3.33,0,0,0,53.76,20a3.21,3.21,0,0,0-2.84-3A17.12,17.12,0,0,1,50.93,23.44Zm-31.27,0a15.89,15.89,0,0,1,0-6.55,3.31,3.31,0,0,0,0,6.55ZM49,28.52c3,.29,5.06-2.55,4.74-4.37a8.5,8.5,0,0,1-2.2.9A1.63,1.63,0,0,0,50,26.32,23.11,23.11,0,0,1,49,28.52ZM38,47V43.17c-1.69.38-3.3,2.54-3.14,3.86Zm.68-18.45c-.3,0-.6,0-.89,0a.76.76,0,0,0-.79.77.73.73,0,0,0,.67.86,10.48,10.48,0,0,0,1.94,0,.74.74,0,0,0,.68-.86.77.77,0,0,0-.78-.78C39.23,28.56,39,28.58,38.68,28.58Z"/><path d="M18.32,37.82a2.9,2.9,0,0,1,2.92,2.89,2.94,2.94,0,1,1-5.87,0A2.9,2.9,0,0,1,18.32,37.82Zm0,1.69a1.2,1.2,0,0,0-1.21,1.25,1.24,1.24,0,1,0,1.21-1.25Z"/><path d="M30.78,18A.87.87,0,0,1,30,19a.83.83,0,0,1-.92-.77c-.08-.42-.25-.77-.72-.76s-.65.34-.72.77a.83.83,0,0,1-.92.76A.89.89,0,0,1,26,18a2.39,2.39,0,0,1,4.78,0Z"/><path d="M42.18,15.76a2.35,2.35,0,0,1,2.36,2.13.88.88,0,0,1-.7,1.08.84.84,0,0,1-1-.78c-.07-.45-.27-.76-.73-.74s-.62.31-.68.74a.83.83,0,0,1-.9.79.86.86,0,0,1-.76-1A2.34,2.34,0,0,1,42.18,15.76Z"/><path d="M35.35,21.53a3.13,3.13,0,0,1-2.22-.9A.85.85,0,1,1,34.3,19.4a1.34,1.34,0,0,0,2,0,.85.85,0,1,1,1.18,1.22A2.94,2.94,0,0,1,35.35,21.53Z"/></g></g></svg>