<svg xmlns="http://www.w3.org/2000/svg" viewBox="0 0 61.97 51.6"><defs><style>.cls-1{fill:#0f0b07;}.cls-2{fill:#ed1c24;}.cls-3{fill:#e4814c;}.cls-4{fill:#d26728;}.cls-5{fill:#b72026;}.cls-6{fill:#fff;}</style></defs><g id="Layer_2" data-name="Layer 2"><g id="Layer_1-2" data-name="Layer 1"><path class="cls-1" d="M54.58,32.32c.7.42.79.63.6,1.43Q53.29,41.6,51.4,49.44A2.65,2.65,0,0,1,49,51.57a2.57,2.57,0,0,1-2.63-1.8,2.84,2.84,0,0,1,0-1.61q2.76-11.43,5.53-22.87c.11-.45,0-.54-.38-.67a57.79,57.79,0,0,0-14.14-3.34,65,65,0,0,0-12.55,0A58.64,58.64,0,0,0,10.5,24.63c-.39.15-.45.28-.36.68q2.77,11.42,5.52,22.82a2.64,2.64,0,0,1-1.88,3.39,2.7,2.7,0,0,1-3.23-2.17c-.71-3-1.43-5.93-2.15-8.89-.17-.74-.05-1,.6-1.38.8,0,1,.15,1.19,1q1.08,4.43,2.15,8.86c.09.34.18.66.58.77.73.14,1.14-.28,1-1s-.35-1.44-.53-2.16Q9.58,30.83,5.81,15.21c-.79-3.3-1.6-6.6-2.4-9.89-.12-.53-.37-.89-1-.73a.71.71,0,0,0-.54,1c.16.68.33,1.36.49,2.05Q5.79,21.8,9.22,36c.18.74,0,1-.63,1.35-.75,0-1-.21-1.17-.94L3.52,20.25Q1.81,13.11.08,6A2.58,2.58,0,0,1,1.94,2.78,2.54,2.54,0,0,1,5.1,4.56c.16.53.32.57.81.37A67.08,67.08,0,0,1,22.21.6,64.29,64.29,0,0,1,37.77.36c.66.08,1.32.15,2,.25s.93.28,1,1.07c-.38.71-.63.85-1.4.73a52.28,52.28,0,0,0-6.49-.55A64.45,64.45,0,0,0,13.13,4.37,46.85,46.85,0,0,0,6.9,6.54a2.45,2.45,0,0,0-.29.08C5.72,7,5.71,7,5.94,7.9q1.17,4.89,2.36,9.78c.43,1.77.86,3.54,1.29,5.35l1.22-.48.23,0a56.54,56.54,0,0,1,16.56-3.3,62.11,62.11,0,0,1,16,1.2,75,75,0,0,1,7.52,2.14l1.19.46c.06-.19.13-.36.17-.53Q54.26,15.27,56,8c.28-1.14.28-1.14-.93-1.51-.07,0-.13-.08-.21-.11A66.2,66.2,0,0,0,43.42,3.06a1,1,0,0,1-1-1.11c.36-.71.64-.83,1.4-.68A68.31,68.31,0,0,1,56.22,5c.27.11.46.24.58-.23a2.61,2.61,0,0,1,5.05-.24s.08.07.12.1V6.06a18,18,0,0,0-.86,3.22q-2.49,10.17-4.94,20.35c-.2.79-.39.95-1.18,1-.68-.45-.79-.7-.61-1.46q1.35-5.55,2.69-11.11,1.5-6.23,3-12.46c.17-.71-.2-1.11-.92-1s-.59.65-.7,1.08Q54.68,21.32,50.91,37q-1.39,5.79-2.81,11.59c-.11.46-.13.89.42,1.1s.93,0,1.11-.78l3.75-15.55C53.57,32.57,53.82,32.36,54.58,32.32Z"/><path class="cls-2" d="M6.9,6.54a46.85,46.85,0,0,1,6.23-2.17A64.45,64.45,0,0,1,32.9,1.86a52.28,52.28,0,0,1,6.49.55c.77.12,1,0,1.4-.73L42.47,2a1,1,0,0,0,1,1.11A66.2,66.2,0,0,1,54.87,6.42c.08,0,.14.08.21.11-.34,1.9-.87,3.74-1.3,5.61q-.91,4-1.9,7.89a12.47,12.47,0,0,1-.72,2.52,75,75,0,0,0-7.52-2.14,62.11,62.11,0,0,0-16-1.2A56.54,56.54,0,0,0,11,22.51l-.23,0c-.12-.07-.13-.19-.16-.31Q9.27,16.52,7.88,10.81C7.54,9.39,7.22,8,6.9,6.54ZM38,10h.1l.21.48c.75,1.82,1.51,3.63,2.27,5.45a.9.9,0,0,0,1,.64.92.92,0,0,0,.78-.94c.33-2.83.67-5.67,1-8.5.09-.73-.17-1.15-.74-1.22s-1,.24-1.07,1-.18,1.64-.28,2.45S41.06,11,41,11.85a1.06,1.06,0,0,1-.31-.43C39.9,9.6,39.13,7.79,38.38,6a.89.89,0,0,0-1-.64c-.53.07-.73.44-.8.92,0,.22,0,.44-.07.66-.31,2.65-.63,5.31-.93,8A.89.89,0,0,0,36.31,16a.93.93,0,0,0,1.06-.91c.11-.77.18-1.56.27-2.34ZM14.83,18.36l.16,0c1.18-.3,2.37-.59,3.55-.92a.87.87,0,0,0,.61-1.14.89.89,0,0,0-1.15-.6l-2.16.56c-.24.07-.4.08-.47-.24-.13-.61-.3-1.2-.47-1.81-.08-.31,0-.45.34-.52.73-.15,1.44-.36,2.15-.58A.87.87,0,0,0,18,12a.89.89,0,0,0-1.14-.61c-.68.16-1.36.32-2,.53-.37.11-.56.08-.64-.36a13.45,13.45,0,0,0-.42-1.63c-.1-.34,0-.49.32-.57.71-.15,1.41-.34,2.1-.54a.92.92,0,0,0,.72-1.09A.9.9,0,0,0,15.77,7c-1.15.26-2.3.56-3.44.88A.84.84,0,0,0,11.67,9c.74,2.9,1.5,5.79,2.26,8.69A.93.93,0,0,0,14.83,18.36Zm8.88-4.45-.23-.5c-1-2.23-2-4.47-3-6.7a.9.9,0,0,0-1.26-.58.93.93,0,0,0-.41,1.33c1.16,2.58,2.32,5.16,3.5,7.74a1.63,1.63,0,0,0,3.15-.43c.25-1.84.47-3.67.7-5.51.12-1,.25-2,.36-3a1,1,0,0,0-.81-1.14.92.92,0,0,0-1,.84c-.05.28-.08.56-.12.84Zm4.63-3.48c0,1.43,0,2.87,0,4.3,0,.71.34,1.11,1,1.12q1.76,0,3.51,0A.91.91,0,1,0,32.79,14c-.73,0-1.45,0-2.18,0-.3,0-.45-.06-.44-.4,0-.62,0-1.25,0-1.87,0-.35.15-.4.44-.39.72,0,1.45,0,2.18,0a.91.91,0,0,0,1-.92.9.9,0,0,0-1-.9H30.6c-.3,0-.44-.08-.43-.4,0-.63,0-1.25,0-1.88,0-.29.09-.38.39-.38.72,0,1.45,0,2.17,0a.91.91,0,0,0,1-.92c0-.55-.4-.89-1.06-.89H29.57c-.93,0-1.22.29-1.23,1.23Zm17,6.3c0,.64.27,1,.75,1.09A.93.93,0,0,0,47.2,17c.56-2.42,1.13-4.85,1.67-7.28.07-.31.15-.4.47-.3s.9.21,1.35.31c.7.14,1.14-.09,1.28-.65s-.17-1-.83-1.12c-1.79-.43-3.59-.84-5.4-1.25a.92.92,0,1,0-.41,1.79c.41.1.82.2,1.24.27s.62.25.49.74c-.29,1.11-.54,2.23-.8,3.34Z"/><path class="cls-3" d="M12.92,49.67c-.4-.11-.49-.43-.58-.77Q11.28,44.46,10.19,40c-.19-.81-.39-1-1.19-1-.14-.58-.27-1.16-.41-1.74.68-.36.81-.61.63-1.35Q5.8,21.8,2.37,7.61C2.21,6.92,2,6.24,1.88,5.56a.71.71,0,0,1,.54-1c.46,1.52.78,3.07,1.15,4.61q1.76,7.25,3.5,14.49l3.45,14.2L13,48.18A1.7,1.7,0,0,1,12.92,49.67Z"/><path class="cls-4" d="M59.16,4.59c.72-.09,1.09.31.92,1q-1.5,6.23-3,12.46-1.34,5.55-2.69,11.11c-.18.76-.07,1,.61,1.46-.14.56-.27,1.12-.41,1.68-.76,0-1,.25-1.2,1L49.63,48.87c-.18.74-.47.94-1.11.78.34-.08.31-.38.37-.62q.66-2.69,1.3-5.38,1.25-5.2,2.5-10.41,1.76-7.3,3.54-14.61,1.56-6.45,3.13-12.91A1.2,1.2,0,0,0,59.16,4.59Z"/><path class="cls-3" d="M59.16,4.59a1.2,1.2,0,0,1,.2,1.13q-1.57,6.45-3.13,12.91-1.77,7.31-3.54,14.61-1.26,5.2-2.5,10.41-.64,2.7-1.3,5.38c-.06.24,0,.54-.37.62-.55-.21-.53-.64-.42-1.1Q49.51,42.76,50.91,37q3.78-15.64,7.55-31.29C58.57,5.24,58.56,4.71,59.16,4.59Z"/><path class="cls-4" d="M12.92,49.67A1.7,1.7,0,0,0,13,48.18L10.52,37.89,7.07,23.69Q5.32,16.45,3.57,9.2C3.2,7.66,2.88,6.11,2.42,4.59c.62-.16.87.2,1,.73.8,3.29,1.61,6.59,2.4,9.89q3.78,15.63,7.55,31.27c.18.72.37,1.44.53,2.16S13.65,49.81,12.92,49.67Z"/><path class="cls-5" d="M6.9,6.54c.32,1.42.64,2.85,1,4.27q1.38,5.71,2.77,11.43c0,.12,0,.24.16.31L9.59,23c-.43-1.81-.86-3.58-1.29-5.35Q7.11,12.79,5.94,7.9C5.71,7,5.72,7,6.61,6.62A2.45,2.45,0,0,1,6.9,6.54Z"/><path class="cls-5" d="M51.16,22.55A12.47,12.47,0,0,0,51.88,20q1-3.93,1.9-7.89c.43-1.87,1-3.71,1.3-5.61,1.21.37,1.21.37.93,1.51q-1.74,7.22-3.49,14.44c0,.17-.11.34-.17.53Z"/><path class="cls-6" d="M38,10l-.33,2.73c-.09.78-.16,1.57-.27,2.34a.93.93,0,0,1-1.06.91.89.89,0,0,1-.75-1.11c.3-2.66.62-5.32.93-8,0-.22,0-.44.07-.66.07-.48.27-.85.8-.92a.89.89,0,0,1,1,.64c.75,1.82,1.52,3.63,2.27,5.45a1.06,1.06,0,0,0,.31.43c.1-.84.21-1.68.31-2.52s.17-1.64.28-2.45.47-1,1.07-1,.83.49.74,1.22c-.33,2.83-.67,5.67-1,8.5a.92.92,0,0,1-.78.94.9.9,0,0,1-1-.64c-.76-1.82-1.52-3.63-2.27-5.45L38.07,10Z"/><path class="cls-6" d="M14.83,18.36a.93.93,0,0,1-.9-.7c-.76-2.9-1.52-5.79-2.26-8.69a.84.84,0,0,1,.66-1.06c1.14-.32,2.29-.62,3.44-.88a.9.9,0,0,1,1.16.66.92.92,0,0,1-.72,1.09c-.69.2-1.39.39-2.1.54-.37.08-.42.23-.32.57a13.45,13.45,0,0,1,.42,1.63c.08.44.27.47.64.36.68-.21,1.36-.37,2-.53A.89.89,0,0,1,18,12a.87.87,0,0,1-.64,1.12c-.71.22-1.42.43-2.15.58-.36.07-.42.21-.34.52.17.61.34,1.2.47,1.81.07.32.23.31.47.24L18,15.67a.89.89,0,0,1,1.15.6.87.87,0,0,1-.61,1.14c-1.18.33-2.37.62-3.55.92Z"/><path class="cls-6" d="M23.71,13.91l.86-7.11c0-.28.07-.56.12-.84a.92.92,0,0,1,1-.84,1,1,0,0,1,.81,1.14c-.11,1-.24,2-.36,3-.23,1.84-.45,3.67-.7,5.51a1.63,1.63,0,0,1-3.15.43c-1.18-2.58-2.34-5.16-3.5-7.74a.93.93,0,0,1,.41-1.33.9.9,0,0,1,1.26.58c1,2.23,2,4.47,3,6.7Z"/><path class="cls-6" d="M28.34,10.43V6.32c0-.94.3-1.23,1.23-1.23h3.14c.66,0,1.06.34,1.06.89a.91.91,0,0,1-1,.92c-.72,0-1.45,0-2.17,0-.3,0-.39.09-.39.38,0,.63,0,1.25,0,1.88,0,.32.13.41.43.4h2.18a.9.9,0,0,1,1,.9.91.91,0,0,1-1,.92c-.73,0-1.46,0-2.18,0-.29,0-.45,0-.44.39,0,.62,0,1.25,0,1.87,0,.34.14.41.44.4.73,0,1.45,0,2.18,0a.91.91,0,1,1,.05,1.81q-1.76,0-3.51,0c-.64,0-1-.41-1-1.12C28.34,13.3,28.34,11.86,28.34,10.43Z"/><path class="cls-6" d="M45.38,16.73l.88-3.9c.26-1.11.51-2.23.8-3.34.13-.49,0-.67-.49-.74s-.83-.17-1.24-.27a.92.92,0,1,1,.41-1.79c1.81.41,3.61.82,5.4,1.25.66.16,1,.6.83,1.12s-.58.79-1.28.65c-.45-.1-.91-.17-1.35-.31s-.4,0-.47.3c-.54,2.43-1.11,4.86-1.67,7.28a.93.93,0,0,1-1.07.84C45.65,17.76,45.35,17.37,45.38,16.73Z"/></g></g></svg>