<svg width="178" height="128" viewBox="0 0 178 128" fill="none" xmlns="http://www.w3.org/2000/svg">
<path fill-rule="evenodd" clip-rule="evenodd" d="M139.465 56.2762C140.058 56.2762 140.498 55.6984 140.376 55.1185C139.944 53.0504 139.269 48.3125 140.253 41.7256C141.598 32.7234 140.943 27.1953 137.69 19.309C132.709 7.23565 126.018 2.35126 118.366 4.91763C108.04 1.4424 100.263 7.83818 95.0364 24.105C92.3856 32.3549 93.5169 39.5057 94.1268 45.9933C94.5464 50.4565 94.2836 53.6455 94.0787 55.2011C94.0056 55.756 94.4345 56.2762 94.9943 56.2762H139.465Z" fill="black"/>
<path d="M109.18 46.1758L108.935 52.7796C108.935 55.6962 107.386 58.3125 104.666 59.3643L93.5005 63.5872C87.3958 65.9477 83.1733 71.2753 81.9139 77.6982L76.3161 106.247C75.0334 112.789 80.0416 118.874 86.7079 118.874H147.133C153.5 118 158 112.5 157.525 106.247L151.927 77.6982C150.668 71.2753 146.201 65.9477 140.097 63.5872L129.545 59.3643C126.825 58.3125 125.032 55.6962 125.032 52.7796V46.1758H109.18Z" fill="#86AEDB"/>
<path fill-rule="evenodd" clip-rule="evenodd" d="M140.499 76.1177C140.693 76.1286 140.842 76.2951 140.831 76.4898L139.485 100.723C139.474 100.917 139.308 101.066 139.113 101.055C138.919 101.045 138.77 100.878 138.78 100.683L140.127 76.4506C140.137 76.256 140.304 76.1069 140.499 76.1177Z" fill="#5289B2"/>
<path fill-rule="evenodd" clip-rule="evenodd" d="M93.3412 76.1177C93.1466 76.1286 92.9975 76.2951 93.0083 76.4898L94.3546 100.723C94.3654 100.917 94.532 101.066 94.7266 101.055C94.9213 101.045 95.0703 100.878 95.0595 100.683L93.7132 76.4506C93.7024 76.256 93.5359 76.1069 93.3412 76.1177Z" fill="#5289B2"/>
<path fill-rule="evenodd" clip-rule="evenodd" d="M108.929 53.0858H125.035L125 44.5547H108.842L108.929 53.0858Z" fill="#FFD0C3"/>
<path fill-rule="evenodd" clip-rule="evenodd" d="M108.876 47.8749C108.876 47.8749 112.017 50.078 115.917 51.0622C119.818 52.0464 125.034 51.9516 125.034 51.9516V44.6875H108.876V47.8749Z" fill="#FFBBAD"/>
<path fill-rule="evenodd" clip-rule="evenodd" d="M130.201 28.6268C131.472 27.2134 133.453 26.5491 135.266 27.3455C137.079 28.1418 138.181 30.1599 137.773 32.7498C137.364 35.3396 136.577 36.698 135.188 38.3222C133.799 39.9464 132.309 40.6077 130.82 40.3709C129.331 40.1341 127.713 37.7666 127.713 37.7666L125.695 36.8126C125.695 36.8126 128.93 30.0402 130.201 28.6268Z" fill="#FFBBAD"/>
<path fill-rule="evenodd" clip-rule="evenodd" d="M102.363 28.7947C101.091 27.3814 99.1109 26.7171 97.2975 27.5134C95.4841 28.3098 94.3822 30.3279 94.7907 32.9177C95.1993 35.5076 95.9865 36.8659 97.3756 38.4902C98.7648 40.1144 100.254 40.7756 101.743 40.5388C103.232 40.3021 104.85 37.9345 104.85 37.9345L106.869 36.9805C106.869 36.9805 103.634 30.2081 102.363 28.7947Z" fill="#FFBBAD"/>
<path fill-rule="evenodd" clip-rule="evenodd" d="M114.629 15.4766H120.71L131 23.9541V34.6369C131 42.6451 124.508 49.1369 116.5 49.1369C108.492 49.1369 102 42.6451 102 34.6369L102 23.8251L114.629 15.4766Z" fill="#FFD0C3"/>
<path d="M113.962 34.7653C113.962 35.969 113.475 36.9447 112.874 36.9447C112.273 36.9447 111.786 35.969 111.786 34.7653C111.786 33.5617 112.273 32.5859 112.874 32.5859C113.475 32.5859 113.962 33.5617 113.962 34.7653Z" fill="black"/>
<path d="M120.489 34.7653C120.489 35.969 120.002 36.9447 119.401 36.9447C118.8 36.9447 118.313 35.969 118.313 34.7653C118.313 33.5617 118.8 32.5859 119.401 32.5859C120.002 32.5859 120.489 33.5617 120.489 34.7653Z" fill="black"/>
<path fill-rule="evenodd" clip-rule="evenodd" d="M131.406 27.6868L117.905 26.0281C117.905 26.0281 118.638 23.7599 118.638 21.1441C118.638 18.5283 117.905 16.2302 117.905 16.2302C117.905 16.2302 117.347 19.9487 116.796 22.1325C116.245 24.3163 115.243 26.0943 115.243 26.0943L110.499 25.8859C110.499 25.8859 111.261 24.3838 111.696 22.672C112.131 20.9602 112.193 19.2224 112.193 19.2224C112.193 19.2224 110.942 22.3455 110.089 23.7771C109.236 25.2087 107.83 26.5456 107.83 26.5456L100.9 27.6627L99.9517 19.2224C99.9517 19.2224 110.96 11 111.576 11C112.193 11 129.303 13.2798 129.303 13.2798L132.051 19.9487L131.406 27.6868Z" fill="black"/>
<path d="M118.352 40.0005L114 41.5195C114.268 42.2874 115.239 43.6711 116.98 43.0635C118.721 42.4559 118.62 40.7684 118.352 40.0005Z" fill="white"/>
<path d="M155.723 97H78.1356L76.1356 105.5C74.9356 115.5 81.9689 118.667 85.6356 119H142.636C156.236 119.8 158.5 111.5 157.5 105.5L155.723 97Z" fill="#FFD0C3"/>
<path d="M84.521 92.032C84.2073 89.1107 86.4965 86.5625 89.4346 86.5625H144.4C147.338 86.5625 149.627 89.1107 149.313 92.032L146.336 119.759C146.066 122.269 143.947 124.173 141.422 124.173H92.412C89.8869 124.173 87.768 122.269 87.4984 119.759L84.521 92.032Z" fill="#D2DCE9"/>
<path d="M120.956 99.3488C120.956 100.836 119.148 102.041 116.918 102.041C114.687 102.041 112.879 100.836 112.879 99.3488C112.879 97.8617 114.687 96.6562 116.918 96.6562C119.148 96.6562 120.956 97.8617 120.956 99.3488Z" fill="#AEBED3"/>
<path d="M72.4148 42.1488C72.4148 56.3466 60.9052 67.8562 46.7074 67.8562C32.5096 67.8562 21 56.3466 21 42.1488C21 27.951 32.5096 16.4414 46.7074 16.4414C60.9052 16.4414 72.4148 27.951 72.4148 42.1488Z" fill="#66BD79"/>
<path d="M65.2815 66.9387C65.3495 67.708 64.5829 68.2791 63.8653 67.9937L49.3509 62.2215C48.5969 61.9216 48.4639 60.911 49.1146 60.4263L62.2527 50.6392C62.9035 50.1544 63.8337 50.5711 63.9052 51.3794L65.2815 66.9387Z" fill="#66BD79"/>
<path fill-rule="evenodd" clip-rule="evenodd" d="M36.485 33.5112C35.2258 35.4282 34.4638 37.6862 35.0733 39.8995C35.7567 42.3818 37.3421 45.8402 41.0097 49.0413C44.6776 52.2427 48.3091 53.3374 50.8523 53.6712C53.1196 53.9688 55.24 52.8971 56.9551 51.3786L58.4856 50.0235C59.4364 49.1818 59.4312 47.6918 58.4745 46.8568L55.3506 44.1303C54.5528 43.434 53.3635 43.4431 52.5764 44.1516L51.0759 45.5022C50.8989 45.6615 50.6967 45.7912 50.4627 45.8328C49.7319 45.9628 47.8967 45.9899 45.4788 43.8795C43.0608 41.7691 42.8321 39.9406 42.8586 39.1959C42.8671 38.9574 42.9669 38.7383 43.0993 38.5403L44.2226 36.8603C44.8118 35.9791 44.6553 34.7953 43.8575 34.099L40.7329 31.3718C39.7762 30.5368 38.306 30.739 37.608 31.8015L36.485 33.5112Z" fill="white"/>
</svg>
