<svg xmlns="http://www.w3.org/2000/svg" viewBox="0 0 55.74 43.48"><defs><style>.cls-1{fill:#ed1c24;}</style></defs><g id="Layer_2" data-name="Layer 2"><g id="Layer_1-2" data-name="Layer 1"><path d="M55.74,42.72a1.35,1.35,0,0,1-1.37.76h-53a2.32,2.32,0,0,1-.59,0A1,1,0,0,1,0,42.31,1,1,0,0,1,1,41.42c.3,0,.61,0,1,0v-22C.38,19.85,0,19.57,0,17.91c0-1,0-2,0-3.05a1.46,1.46,0,0,1,.94-1.53C6.15,10.74,11.36,8.11,16.57,5.5,20.08,3.74,23.59,2,27.09.21a1.57,1.57,0,0,1,1.58,0c4.34,2.2,8.69,4.37,13,6.56l.66.29V4.57c0-1.05.39-1.44,1.45-1.44H49.2c1,0,1.42.39,1.42,1.41,0,2.08,0,4.17,0,6.25a.62.62,0,0,0,.4.66c1.27.62,2.54,1.24,3.79,1.91a5.29,5.29,0,0,1,.94.84v4.68c-.45.88-1.14.92-1.94.47V41.41c.76,0,1.5-.09,1.94.65Zm-4.09-7.65c0-.2,0-.37,0-.55,0-5.26,0-10.52,0-15.78a.68.68,0,0,0-.43-.7Q39.77,12.3,28.31,6.51a.88.88,0,0,0-.86,0Q16,12.29,4.49,18a.65.65,0,0,0-.42.7q0,7.86,0,15.73v.6H20.66V22.12c0-1.13.35-1.47,1.5-1.47H33.54c1.19,0,1.52.32,1.52,1.5V35.07ZM33,41.37V22.79H22.78V41.37ZM2.08,16.9l.6-.28Q14.86,10.52,27,4.39a1.68,1.68,0,0,1,1.68,0q12.17,6.14,24.35,12.24l.59.27a8.66,8.66,0,0,1,0-1.15c.07-.51-.16-.72-.59-.94Q40.73,8.62,28.38,2.41a1,1,0,0,0-1,0Q20.26,6,13.12,9.56L2.54,14.88c-.18.09-.42.28-.44.44A13.63,13.63,0,0,0,2.08,16.9ZM20.62,41.37V37.2H4.11v4.17Zm31-4.16H35.1v4.16H51.64Zm-3.13-27V5.27h-4a8.36,8.36,0,0,1,0,1.42,1.7,1.7,0,0,0,1.3,2.14A26.82,26.82,0,0,1,48.51,10.18Z"/><path d="M38.28,30.92V23c0-.4,0-.8,0-1.19,0-.76.4-1.17,1.15-1.17q3.48,0,7,0c.81,0,1.16.47,1.16,1.38,0,2.75,0,5.51,0,8.26,0,.4,0,.7.46.89a.86.86,0,0,1,.42,1.08.94.94,0,0,1-.82.76,4.75,4.75,0,0,1-.54,0H38.59l-.54,0a.94.94,0,0,1-.86-.91,1,1,0,0,1,.61-1A4.49,4.49,0,0,1,38.28,30.92Zm2.12-5.13h5v-3h-5Zm0,2.15v3h5v-3Z"/><path d="M8.27,30.93V22.24c0-1.3.3-1.59,1.6-1.59h6.2c1.09,0,1.46.37,1.46,1.47,0,2.77,0,5.55,0,8.32,0,.33,0,.55.4.71a.87.87,0,0,1,.49,1.09.94.94,0,0,1-.84.79,3.91,3.91,0,0,1-.49,0H8.54A2.46,2.46,0,0,1,8,33a.93.93,0,0,1-.82-.87,1,1,0,0,1,.58-1.06A3.88,3.88,0,0,1,8.27,30.93Zm7.15-8.13h-5v3h5Zm0,5.14h-5v3h5Z"/><path class="cls-1" d="M22.78,22.79V41.37H33V22.79Z"/><path d="M25.48,33.37a1.31,1.31,0,0,1-1.31-1.29,1.39,1.39,0,0,1,1.28-1.29,1.3,1.3,0,0,1,1.31,1.29A1.25,1.25,0,0,1,25.48,33.37Z"/></g></g></svg>