<svg xmlns="http://www.w3.org/2000/svg" viewBox="0 0 43.8 57.14"><defs><style>.cls-1{fill:#ed1c24;}</style></defs><g id="Layer_2" data-name="Layer 2"><g id="Layer_1-2" data-name="Layer 1"><path d="M14.06,45.46H5.42a8.44,8.44,0,0,1-1.75-.13A4.64,4.64,0,0,1,0,40.8q0-8.69,0-17.39a4.65,4.65,0,0,1,4.89-4.68c5.83,0,11.65,0,17.47,0,2.4,0,4.8,0,7.2,0a4.68,4.68,0,0,1,5,4.92c0,1.42,0,2.84,0,4.41.34-.17.56-.27.77-.39,2.11-1.14,4.21-2.29,6.32-3.42,1.25-.67,2.14-.15,2.14,1.25q0,6.59,0,13.17c0,1.4-.89,1.92-2.13,1.26l-6.39-3.46c-.17-.1-.35-.18-.63-.32,0,.28-.07.49-.07.69,0,1.18,0,2.35,0,3.53a4.73,4.73,0,0,1-5.05,5.09c-2.4,0-4.8,0-7.2,0h-.92c.17.39.28.67.41.94q2,4.24,4,8.49a6,6,0,0,1,.27.63A1.17,1.17,0,0,1,25.55,57,1.21,1.21,0,0,1,24,56.65a3.91,3.91,0,0,1-.36-.67c-1.56-3.27-3.12-6.53-4.64-9.81a1.1,1.1,0,0,0-1.23-.72c-.57,0-1,0-1.25.69-1.48,3.24-3,6.45-4.57,9.67a4.47,4.47,0,0,1-.43.81A1.16,1.16,0,0,1,10,57a1.12,1.12,0,0,1-.68-1.31,3.46,3.46,0,0,1,.3-.79q2-4.3,4.09-8.63ZM17.3,43H29.48a2.25,2.25,0,0,0,2.57-2.58V23.78a2.25,2.25,0,0,0-2.57-2.58H5.13c-1.79,0-2.63.82-2.63,2.61q0,8.28,0,16.55c0,1.79.84,2.62,2.63,2.62Z"/><path class="cls-1" d="M18.16,0A17.35,17.35,0,0,1,30.21,4.84a1.44,1.44,0,0,1,.56,1.42,1.23,1.23,0,0,1-2.16.47,14.32,14.32,0,0,0-5.13-3.27A14.82,14.82,0,0,0,8,6.46l-.39.37a1.22,1.22,0,0,1-1.78,0A1.26,1.26,0,0,1,5.88,5a16.84,16.84,0,0,1,4.8-3.36A17.27,17.27,0,0,1,18.16,0Z"/><path class="cls-1" d="M18.13,6.06A11.38,11.38,0,0,1,25.92,9.2c.69.65.77,1.39.23,1.94A1.23,1.23,0,0,1,24.26,11,8.91,8.91,0,0,0,12,11a1.22,1.22,0,0,1-1.94.06,1.31,1.31,0,0,1,.28-1.89A11.46,11.46,0,0,1,18.13,6.06Z"/><path class="cls-1" d="M18.24,11.37a5.86,5.86,0,0,1,4,1.55,1.25,1.25,0,0,1,.28,1.88c-.48.57-1.18.57-1.88,0a3.58,3.58,0,0,0-4.93,0,1.25,1.25,0,1,1-1.62-1.87A5.9,5.9,0,0,1,18.24,11.37Z"/><path d="M17.31,34.54H27.73c1,0,1.25.23,1.25,1.26s0,2.1,0,3.14-.27,1.19-1.19,1.2H7.11c-1.34,0-1.56-.22-1.56-1.56V35.9c0-1.11.26-1.36,1.34-1.36Z"/><path d="M9.34,26.75c-.72,0-1.43,0-2.14,0a1.23,1.23,0,1,1,0-2.46c1.45,0,2.91,0,4.36,0a1.25,1.25,0,0,1,1.29,1.24,1.21,1.21,0,0,1-1.29,1.21C10.82,26.77,10.08,26.75,9.34,26.75Z"/><path d="M16.22,27a1.48,1.48,0,0,1-1.51-1.48A1.56,1.56,0,0,1,16.26,24a1.59,1.59,0,0,1,1.48,1.55A1.51,1.51,0,0,1,16.22,27Z"/></g></g></svg>