<svg xmlns="http://www.w3.org/2000/svg" viewBox="0 0 50.75 61.98"><defs><style>.cls-1{fill:#ed1c24;}.cls-2{fill:#fff;}</style></defs><g id="Layer_2" data-name="Layer 2"><g id="Layer_1-2" data-name="Layer 1"><path d="M2.3,62A3.08,3.08,0,0,1,.09,59.79,3.91,3.91,0,0,1,0,59V3A2.88,2.88,0,0,1,3.09,0H37.58a2.88,2.88,0,0,1,3.09,3.1q0,27.66,0,55.31c0,1.79-.61,3-2.32,3.57ZM38.74,36.79V3.22c0-1-.35-1.29-1.34-1.29H20c-.19,0-.38,0-.56,0V36.79ZM19.39,60.05h18c1.09,0,1.4-.31,1.4-1.41V38.77H36.8v1.59c0,1-.29,1.28-1.3,1.28H19.39ZM1.93,36.77H17.39V1.93h-14c-1.16,0-1.45.29-1.45,1.48V36.77Zm0,2V58.64c0,1.1.31,1.41,1.4,1.41H17.38V41.64H5.05c-.85,0-1.17-.32-1.18-1.16V38.75Zm32.91,0H19.39v.9H34.84Zm-17.43,0H5.83v.9H17.41Z"/><path class="cls-1" d="M38.74,36.79H19.41V2c.18,0,.37,0,.56,0H37.4c1,0,1.34.34,1.34,1.29V36.79Z"/><path d="M15.49,26.17v7.44c0,.93-.31,1.25-1.21,1.25H5.09c-.91,0-1.22-.31-1.22-1.24V18.68c0-.93.31-1.25,1.21-1.25h9.2c.91,0,1.21.32,1.21,1.25Zm-2-1.92h-.89a.37.37,0,0,0,0,.09c0,.57,0,1.13,0,1.7a1,1,0,0,1-1.08,1.07q-1.82,0-3.63,0c-.75,0-1.08-.35-1.09-1.12V24.25H5.85V32.9h7.68Zm0-4.84H5.85v2.83h7.68Zm-2.91,5.74v-.91H8.75v.91Z"/><path class="cls-1" d="M13.53,24.25V32.9H5.85V24.25h.93V26c0,.77.34,1.12,1.09,1.12q1.82,0,3.63,0A1,1,0,0,0,12.58,26c0-.57,0-1.13,0-1.7a.37.37,0,0,1,0-.09Z"/><path class="cls-1" d="M13.53,19.41v2.83H5.85V19.41Z"/><path class="cls-2" d="M10.62,25.15H8.75v-.91h1.87Z"/><circle class="cls-2" cx="36.79" cy="41.67" r="8.64"/><path d="M36.79,31.7a10,10,0,1,0,6.3,17.67l5.95,6a1,1,0,0,0,1.4,0,1,1,0,0,0,0-1.41l0,0L44.5,48A10,10,0,0,0,36.79,31.7Zm0,2a8,8,0,1,1-8,8A8,8,0,0,1,36.79,33.69Z"/></g></g></svg>