<svg xmlns="http://www.w3.org/2000/svg" viewBox="0 0 56.16 56.19"><defs><style>.cls-1{fill:#ed1c24;}</style></defs><g id="Layer_2" data-name="Layer 2"><g id="Layer_1-2" data-name="Layer 1"><polygon class="cls-1" points="27.8 40.83 34.72 31.96 39.79 29.83 41.76 50.88 27.8 55.49 27.8 40.83"/><path d="M18.7,29.94c-1.24-2.2-2.49-4.31-3.65-6.48A20.53,20.53,0,0,1,12.71,17,13.89,13.89,0,0,1,14.14,8.7a15.51,15.51,0,0,1,29.29,4.55A13.71,13.71,0,0,1,42,21.45c-1.3,2.61-2.78,5.13-4.19,7.69-.13.24-.29.46-.54.86a16.57,16.57,0,0,1,1.81-.74,2,2,0,0,1,1.2,0c3.73,1.52,7.43,3.08,11.15,4.62A1.4,1.4,0,0,1,52.36,35q1.28,6.77,2.57,13.53c.39,2,.77,4.07,1.16,6.1.09.47.17.93-.24,1.3s-.89.24-1.36.07c-4.09-1.47-8.18-2.94-12.28-4.38a2,2,0,0,0-1.2,0C36.93,53.08,32.86,54.54,28.8,56a1.94,1.94,0,0,1-1.46,0c-4.09-1.47-8.18-2.94-12.28-4.38a1.85,1.85,0,0,0-1.14,0C9.82,53.08,5.73,54.55,1.64,56a1.2,1.2,0,0,1-1.3,0c-.44-.38-.36-.84-.27-1.34q1.86-9.69,3.68-19.39a1.68,1.68,0,0,1,1.12-1.41q5.42-2.22,10.81-4.51a1.76,1.76,0,0,1,1.55,0C17.7,29.55,18.19,29.72,18.7,29.94Zm9.35,9.33c1.77-2.35,3.45-4.51,5.05-6.73a66.16,66.16,0,0,0,7.11-11.77,12.78,12.78,0,0,0,1.29-7.15,13.56,13.56,0,0,0-27,1.81,12.83,12.83,0,0,0,1.27,5A57.67,57.67,0,0,0,22,31C23.9,33.75,25.94,36.42,28.05,39.27Zm1,14.56c3.82-1.35,7.53-2.66,11.24-4a.58.58,0,0,0,.26-.44c0-.63-.1-1.25-.16-1.87q-.39-4.14-.8-8.3c-.24-2.56-.49-5.12-.74-7.75-1.06.44-2.09.84-3.09,1.29a2.1,2.1,0,0,0-.78.6Q32.13,37,29.33,40.71a1.5,1.5,0,0,0-.29.81q0,5.86,0,11.73ZM17.29,31.45c-.26,2.83-.52,5.55-.78,8.28-.3,3.15-.6,6.29-.92,9.44a.59.59,0,0,0,.48.73c2.75,1,5.49,2,8.24,2.93l2.74,1c0-.14.05-.22.05-.29q0-6.08,0-12.16a1.08,1.08,0,0,0-.23-.59l-5.77-7.53a1.21,1.21,0,0,0-.39-.36C19.6,32.4,18.48,31.94,17.29,31.45Zm23.53.12c.25,2.62.48,5.12.71,7.63.31,3.28.64,6.57.93,9.86a.81.81,0,0,0,.63.81c2.73,1,5.45,1.94,8.18,2.91l2.57.9a1.53,1.53,0,0,0,0-.31Q52.21,44.69,50.55,36a1,1,0,0,0-.5-.59c-.57-.29-1.18-.51-1.77-.76ZM2.25,53.63h.16C6,52.35,9.66,51.07,13.27,49.76a.77.77,0,0,0,.37-.53c.19-1.72.34-3.45.51-5.17l.93-9.69c.09-.91.17-1.82.25-2.78l-.52.2C12,33,9.17,34.16,6.33,35.3a1.18,1.18,0,0,0-.8,1c-.81,4.35-1.65,8.7-2.48,13C2.79,50.78,2.52,52.18,2.25,53.63Z"/><path d="M34.77,15.5A6.7,6.7,0,1,1,28,8.81,6.7,6.7,0,0,1,34.77,15.5Zm-6.69-5a5,5,0,1,0,5,5A5.07,5.07,0,0,0,28.08,10.48Z"/></g></g></svg>