<svg xmlns="http://www.w3.org/2000/svg" viewBox="0 0 54.21 58.74"><defs><style>.cls-1{fill:#ed1c24;}</style></defs><g id="Layer_2" data-name="Layer 2"><g id="Layer_1-2" data-name="Layer 1"><path d="M35.46,44.76c.32.7.61,1.4,1,2.07a.86.86,0,0,0,.56.34c2.31.48,4.62.93,6.92,1.39l1.61.32V47h1.93V50.4c2.11.58,3,1.55,2.91,3.2-.06,1.45-1.08,2.44-2.89,2.78v2.19H45.55V56c-.56.92-1.23.69-1.89.53L33.49,54.15a5.26,5.26,0,0,0-.53-.09v4.5H31c0-1.24-.07-2.49,0-3.73a4.68,4.68,0,0,0-.91-3.21c-.7-.94-1.27-2-2-2.95v9.91H26.18c0-.2,0-.39,0-.58,0-4.22,0-8.44,0-12.66,0-.58.11-1.07.72-1.23s.94.18,1.23.65c1.4,2.27,2.81,4.52,4.24,6.77A1.09,1.09,0,0,0,33,52c3.56.84,7.13,1.66,10.79,2.51l.65-3.85-5.06-1c-1.09-.22-2.17-.45-3.26-.63A1.64,1.64,0,0,1,34.75,48c-1.11-2.48-2.28-4.93-3.38-7.42A2,2,0,0,0,30,39.3c-.95-.29-1.11-.66-.86-1.65l-2.12-1c-1.08-.49-2.19-.92-3.23-1.49A7.24,7.24,0,0,0,20,34.37c-2.24.07-4.48,0-6.72,0a2.07,2.07,0,0,0-.82.16C10,35.62,7.61,36.69,5.19,37.79a1,1,0,0,0-.46.59q-.93,6.52-1.81,13c-.3,2.22-.59,4.44-.89,6.65a5.43,5.43,0,0,1-.13.66L0,58.49c.14-1.08.27-2.11.41-3.14l1.41-10.3c.36-2.57.72-5.15,1.06-7.72a1.21,1.21,0,0,1,.81-1c2.47-1.08,4.93-2.19,7.4-3.27a.74.74,0,0,0,.54-.85,22.06,22.06,0,0,1,0-2.3,7.09,7.09,0,0,1,.25-1.18l.22-.07a3.91,3.91,0,0,1-.48-.35,8.54,8.54,0,0,1-2.9-6.59A13.77,13.77,0,0,1,9.19,17a8.81,8.81,0,0,1,9.08-5.81A8.57,8.57,0,0,1,26,18.48a20.33,20.33,0,0,1-.07,5.11,7.77,7.77,0,0,1-3,4.94c.1.6.23,1.09.26,1.59a17.7,17.7,0,0,1,0,2.06.76.76,0,0,0,.53.86c2.24,1,4.47,2,6.76,3.06l2.43-3a7.81,7.81,0,0,1-1.74-3.67c-.43-3.13-.55-6.24,1.48-9a8.79,8.79,0,0,1,9.18-3.28,8.55,8.55,0,0,1,6.42,7.1c.33,2.59.44,5.22-1,7.58a1.2,1.2,0,0,0,.12,1.65c1.52,1.88,3,3.82,4.44,5.74.67.87.63,1.24-.22,1.95a7.61,7.61,0,0,1,1.61,4c.16,1.69.25,3.38.38,5.07.19,2.49.39,5,.58,7.48,0,.26,0,.52,0,.82l-1.89.14c-.07-.79-.15-1.56-.21-2.34q-.39-5.22-.77-10.44A5.83,5.83,0,0,0,49.63,42a.84.84,0,0,0-.66-.2c-1.17.22-2.32.49-3.55.76.32.86-.11,1.31-.8,1.7-1.4.8-2.77,1.65-4.14,2.49a1.29,1.29,0,0,1-1.52,0c-1.12-.7-2.27-1.37-3.4-2.05ZM24.25,20.82c0-.64-.06-1.29-.14-1.93a6.75,6.75,0,0,0-5.42-5.69,6.84,6.84,0,0,0-7.32,3.63,10.25,10.25,0,0,0-.69,5.33,6.76,6.76,0,0,0,11.9,4A7.41,7.41,0,0,0,24.25,20.82Zm10,10.74c.51-.62,1-1.16,1.41-1.75a1.2,1.2,0,0,0,.2-.74,3.89,3.89,0,1,1,7.73-.85.71.71,0,0,0,.06.34c.61.82,1.24,1.62,1.92,2.51.19-.44.35-.76.48-1.09a11,11,0,0,0,.34-5.25A6.67,6.67,0,0,0,40.93,19a6.79,6.79,0,0,0-7.29,3.67A10.81,10.81,0,0,0,33,28.36,6.1,6.1,0,0,0,34.24,31.56Zm4.52.84s0,.11-.06.19C37.83,35.81,37,39,36.12,42.27a.75.75,0,0,0,.28.6c1,.61,1.93,1.16,2.89,1.76a.69.69,0,0,0,.87,0C41.08,44,42,43.47,43,42.94a.61.61,0,0,0,.32-.83c-.58-2.11-1.14-4.23-1.7-6.35-.31-1.14-.61-2.28-.9-3.36Zm10.86,7.17-6.83-8.88c-.13.45-.32.75-.26,1,.74,2.86,1.51,5.72,2.28,8.57,0,.13.29.33.4.31C46.66,40.25,48.1,39.92,49.62,39.57Zm-28.34-9H13.6v1.87h7.68Zm10.37,7.28,3.29,1.22,2-7.5-.11,0Zm10-9.23a1.93,1.93,0,1,0-2,1.91A2,2,0,0,0,41.64,28.6Zm4.18,25.49c.52.1,1,.2,1.42.27a1,1,0,0,0,1.17-.79,1,1,0,0,0-.8-1.1c-.46-.11-.94-.19-1.46-.29ZM33.56,40.65l.6,1.29.25-1Z"/><path d="M31,1.93A5.18,5.18,0,0,1,34,.1a4.87,4.87,0,0,1,5.74,4.52,9.29,9.29,0,0,1-5.95,9,21.25,21.25,0,0,1-2.14.8,2.11,2.11,0,0,1-1.22,0A13.92,13.92,0,0,1,25.58,12a9.06,9.06,0,0,1-3.26-7.55,4.47,4.47,0,0,1,3-4.06,4.64,4.64,0,0,1,5,.82A9.51,9.51,0,0,1,31,1.93ZM24.23,5a7.45,7.45,0,0,0,4.55,6.71c2.22.94,2.24,1,4.41,0A7.24,7.24,0,0,0,37.77,5,2.9,2.9,0,1,0,32,4.8c-.07.74-.57,1.18-1.19,1s-.72-.55-.77-1.09A2.9,2.9,0,0,0,24.23,5Z"/><path d="M6.82,44.11H8.68V58.56H6.82Z"/><path class="cls-1" d="M24.23,5A2.9,2.9,0,0,1,30,4.73c.05.54.22.95.77,1.09s1.12-.28,1.19-1A2.9,2.9,0,1,1,37.77,5a7.24,7.24,0,0,1-4.58,6.75c-2.17,1-2.19.92-4.41,0A7.45,7.45,0,0,1,24.23,5Z"/></g></g></svg>